<svg width="89" height="118" viewBox="0 0 89 118" fill="none" xmlns="http://www.w3.org/2000/svg">
<path d="M9.80522 51.7883V61.1248C9.80522 62.5702 9.39504 63.6835 8.57468 64.4648C7.76735 65.2461 6.67354 65.6367 5.29326 65.6367C3.84787 65.6367 2.68895 65.2265 1.8165 64.4062C0.944062 63.5858 0.50784 62.4204 0.50784 60.9099H3.82833C3.82833 61.4829 3.94553 61.9191 4.17991 62.2186C4.4143 62.505 4.75286 62.6483 5.19559 62.6483C5.59926 62.6483 5.91178 62.5181 6.13315 62.2576C6.35451 61.9972 6.4652 61.6196 6.4652 61.1248V51.7883H9.80522ZM17.6597 65.6563C16.5919 65.6563 15.6283 65.4284 14.7689 64.9726C13.9225 64.5169 13.2519 63.8658 12.757 63.0194C12.2752 62.173 12.0343 61.1834 12.0343 60.0505C12.0343 58.9306 12.2818 57.9475 12.7766 57.1011C13.2714 56.2417 13.9485 55.5841 14.8079 55.1283C15.6674 54.6726 16.6309 54.4447 17.6987 54.4447C18.7665 54.4447 19.7301 54.6726 20.5895 55.1283C21.4489 55.5841 22.126 56.2417 22.6209 57.1011C23.1157 57.9475 23.3631 58.9306 23.3631 60.0505C23.3631 61.1703 23.1092 62.16 22.6013 63.0194C22.1065 63.8658 21.4229 64.5169 20.5504 64.9726C19.691 65.4284 18.7274 65.6563 17.6597 65.6563ZM17.6597 62.7655C18.2977 62.7655 18.8381 62.5311 19.2808 62.0623C19.7366 61.5935 19.9645 60.9229 19.9645 60.0505C19.9645 59.178 19.7431 58.5074 19.3004 58.0387C18.8707 57.5699 18.3368 57.3355 17.6987 57.3355C17.0476 57.3355 16.5072 57.5699 16.0775 58.0387C15.6478 58.4944 15.433 59.165 15.433 60.0505C15.433 60.9229 15.6413 61.5935 16.058 62.0623C16.4877 62.5311 17.0216 62.7655 17.6597 62.7655Z" fill="#F2994A"/>
<path d="M38.7098 68.4805C44.5866 68.4805 49.3505 63.7166 49.3505 57.8398C49.3505 51.9631 44.5866 47.1992 38.7098 47.1992C32.8331 47.1992 28.0692 51.9631 28.0692 57.8398C28.0692 63.7166 32.8331 68.4805 38.7098 68.4805Z" stroke="#F2994A" stroke-width="2.50368" stroke-linejoin="round"/>
<path d="M46.3598 65.4898L51.6707 70.8008M42.2507 53.6731C41.7862 53.2074 41.2343 52.8382 40.6266 52.5865C40.0189 52.3348 39.3675 52.2057 38.7098 52.2066C37.3265 52.2066 36.0747 52.7668 35.169 53.6731H42.2507Z" stroke="#F2994A" stroke-width="2.50368" stroke-linecap="round" stroke-linejoin="round"/>
<path d="M60.291 56.144C60.6035 55.6362 61.0528 55.226 61.6387 54.9135C62.2247 54.601 62.8953 54.4447 63.6506 54.4447C64.5491 54.4447 65.3629 54.6726 66.0921 55.1283C66.8213 55.5841 67.3943 56.2352 67.811 57.0816C68.2407 57.928 68.4555 58.9111 68.4555 60.031C68.4555 61.1508 68.2407 62.1404 67.811 62.9999C67.3943 63.8463 66.8213 64.5039 66.0921 64.9726C65.3629 65.4284 64.5491 65.6563 63.6506 65.6563C62.8823 65.6563 62.2117 65.5065 61.6387 65.207C61.0658 64.8945 60.6166 64.4843 60.291 63.9765V65.5H56.951V51.0461H60.291V56.144ZM65.0569 60.031C65.0569 59.1976 64.8225 58.5465 64.3537 58.0777C63.898 57.5959 63.3315 57.355 62.6544 57.355C61.9903 57.355 61.4239 57.5959 60.9551 58.0777C60.4994 58.5595 60.2715 59.2171 60.2715 60.0505C60.2715 60.8839 60.4994 61.5415 60.9551 62.0232C61.4239 62.505 61.9903 62.7459 62.6544 62.7459C63.3185 62.7459 63.885 62.505 64.3537 62.0232C64.8225 61.5284 65.0569 60.8643 65.0569 60.031ZM74.8369 65.6563C73.8864 65.6563 73.04 65.4935 72.2977 65.168C71.5555 64.8424 70.9695 64.3997 70.5398 63.8398C70.1101 63.2668 69.8692 62.6288 69.8171 61.9256H73.1181C73.1572 62.3032 73.333 62.6092 73.6455 62.8436C73.958 63.078 74.3421 63.1952 74.7979 63.1952C75.2146 63.1952 75.5336 63.1171 75.755 62.9608C75.9894 62.7915 76.1065 62.5767 76.1065 62.3162C76.1065 62.0037 75.9438 61.7758 75.6182 61.6326C75.2927 61.4763 74.7653 61.3071 74.0361 61.1248C73.2548 60.9425 72.6037 60.7536 72.0829 60.5583C71.562 60.35 71.1128 60.031 70.7352 59.6012C70.3575 59.1585 70.1687 58.566 70.1687 57.8238C70.1687 57.1988 70.338 56.6323 70.6766 56.1245C71.0281 55.6036 71.536 55.1935 72.2001 54.894C72.8772 54.5945 73.678 54.4447 74.6026 54.4447C75.9698 54.4447 77.0441 54.7833 77.8254 55.4604C78.6197 56.1375 79.0755 57.036 79.1926 58.1559H76.1065C76.0545 57.7782 75.8852 57.4787 75.5987 57.2574C75.3253 57.036 74.9606 56.9253 74.5049 56.9253C74.1142 56.9253 73.8148 57.0034 73.6064 57.1597C73.3981 57.3029 73.2939 57.5048 73.2939 57.7652C73.2939 58.0777 73.4567 58.3121 73.7822 58.4684C74.1208 58.6246 74.6416 58.7809 75.3448 58.9371C76.1521 59.1455 76.8097 59.3538 77.3175 59.5622C77.8254 59.7575 78.2681 60.083 78.6457 60.5388C79.0364 60.9815 79.2382 61.5805 79.2512 62.3358C79.2512 62.9738 79.0689 63.5468 78.7043 64.0546C78.3528 64.5494 77.8384 64.9401 77.1613 65.2265C76.4972 65.513 75.7224 65.6563 74.8369 65.6563Z" fill="#F2994A"/>
</svg>
